<svg height="512pt" viewBox="0 0 512 512" width="512pt" xmlns="http://www.w3.org/2000/svg"><path d="m482 422h-452c-11.046875 0-20-8.953125-20-20v-372c0-11.046875 8.953125-20 20-20h452c11.046875 0 20 8.953125 20 20v372c0 11.046875-8.957031 20-20 20zm0 0" fill="#fff"/><path d="m502 98h-492v-68c0-11.046875 8.953125-20 20-20h452c11.046875 0 20 8.953125 20 20zm0 0" fill="#91def5"/><path d="m430 308h-116c-13.253906 0-24-10.746094-24-24s10.746094-24 24-24h116c13.253906 0 24 10.746094 24 24s-10.746094 24-24 24zm0 0" fill="#f5737f"/><path d="m410.246094 502-40.148438-69.542969-28.714844 16.691407v-141.148438l122.238282 70.574219-25.773438 14.769531 40.152344 69.539062zm0 0" fill="#79b2ff"/><path d="m214.03125 242c0 43.078125-34.921875 78-78 78s-78-34.921875-78-78 34.921875-78 78-78 78 34.921875 78 78zm0 0" fill="#b0e7f8"/><path d="m190.707031 296.675781.476563.480469c14.117187-14.117188 22.847656-33.617188 22.847656-55.15625 0-.152344-.011719-.304688-.011719-.460938h-78.394531zm0 0" fill="#ffcb7c"/><path d="m136.03125 164c-.136719 0-.269531.007812-.40625.007812v77.53125h78.394531c-.25-42.867187-35.066406-77.539062-77.988281-77.539062zm0 0" fill="#f5737f"/><path d="m70 44c-2.628906 0-5.210938 1.070312-7.070312 2.929688-1.859376 1.859374-2.929688 4.441406-2.929688 7.070312s1.070312 5.210938 2.929688 7.070312c1.859374 1.859376 4.441406 2.929688 7.070312 2.929688s5.210938-1.070312 7.070312-2.929688c1.859376-1.859374 2.929688-4.441406 2.929688-7.070312s-1.070312-5.210938-2.929688-7.070312c-1.859374-1.859376-4.441406-2.929688-7.070312-2.929688zm0 0"/><path d="m123.667969 44c-2.636719 0-5.207031 1.070312-7.066407 2.929688-1.871093 1.859374-2.933593 4.441406-2.933593 7.070312s1.0625 5.210938 2.933593 7.070312c1.859376 1.859376 4.4375 2.929688 7.066407 2.929688 2.632812 0 5.203125-1.070312 7.070312-2.929688 1.863281-1.859374 2.929688-4.441406 2.929688-7.070312s-1.066407-5.210938-2.929688-7.070312c-1.859375-1.859376-4.4375-2.929688-7.070312-2.929688zm0 0"/><path d="m448 44h-235.5c-5.523438 0-10 4.476562-10 10s4.476562 10 10 10h235.5c5.523438 0 10-4.476562 10-10s-4.476562-10-10-10zm0 0"/><path d="m482 0h-452c-16.542969 0-30 13.457031-30 30v372c0 16.542969 13.457031 30 30 30h221.382812c5.523438 0 10-4.476562 10-10s-4.476562-10-10-10h-221.382812c-5.515625 0-10-4.488281-10-10v-294h472v294c0 5.511719-4.488281 10-10 10h-21.832031l-8.644531-14.96875 17.066406-9.78125c3.105468-1.777344 5.023437-5.082031 5.027344-8.660156.007812-3.578125-1.898438-6.886719-5-8.675782l-89.914063-51.914062h51.296875c18.746094 0 34-15.253906 34-34 0-18.75-15.253906-34-34-34h-116c-18.75 0-34 15.25-34 34 0 18.746094 15.25 34 34 34h17.382812v131.148438c0 3.578124 1.910157 6.882812 5.011719 8.664062 3.101563 1.785156 6.917969 1.777344 10.011719-.019531l20.046875-11.648438 35.132813 60.855469c1.851562 3.207031 5.214843 5 8.671874 5 1.695313 0 3.414063-.433594 4.988282-1.339844l67.753906-39.117187c2.296875-1.328125 3.972656-3.511719 4.65625-6.074219.6875-2.5625.328125-5.289062-.996094-7.585938l-14.945312-25.882812h10.285156c16.542969 0 30-13.457031 30-30v-372c0-16.542969-13.457031-30-30-30zm-182 284c0-7.71875 6.28125-14 14-14h116c7.71875 0 14 6.28125 14 14s-6.28125 14-14 14h-116c-7.71875 0-14-6.28125-14-14zm113.90625 204.339844-35.148438-60.882813c-1.328124-2.300781-3.519531-3.976562-6.085937-4.660156-.847656-.226563-1.710937-.339844-2.574219-.339844-1.75 0-3.488281.460938-5.023437 1.355469l-13.691407 7.957031v-106.449219l92.179688 53.222657-10.683594 6.121093c-2.308594 1.320313-3.992187 3.507813-4.6875 6.074219-.691406 2.566407-.332031 5.300781.996094 7.601563l35.152344 60.882812zm-393.90625-400.339844v-58c0-5.515625 4.484375-10 10-10h452c5.511719 0 10 4.484375 10 10v58zm0 0"/><path d="m290 174h12.332031c5.523438 0 10-4.476562 10-10s-4.476562-10-10-10h-12.332031c-5.523438 0-10 4.476562-10 10s4.476562 10 10 10zm0 0"/><path d="m347.332031 174h106.667969c5.523438 0 10-4.476562 10-10s-4.476562-10-10-10h-106.667969c-5.523437 0-10 4.476562-10 10s4.476563 10 10 10zm0 0"/><path d="m290 222h12.332031c5.523438 0 10-4.476562 10-10s-4.476562-10-10-10h-12.332031c-5.523438 0-10 4.476562-10 10s4.476562 10 10 10zm0 0"/><path d="m347.332031 222h106.667969c5.523438 0 10-4.476562 10-10s-4.476562-10-10-10h-106.667969c-5.523437 0-10 4.476562-10 10s4.476563 10 10 10zm0 0"/><path d="m48.03125 242c0 48.523438 39.476562 88 88 88s88-39.476562 88-88-39.476562-88-88-88-88 39.476562-88 88zm142.609375 40.464844-30.46875-30.464844h43.117187c-1.671874 11.292969-6.128906 21.691406-12.648437 30.464844zm-122.609375-40.464844c0-34.097656 25.230469-62.40625 58-67.257812v67.257812c0 2.761719 1.117188 5.261719 2.929688 7.070312l47.539062 47.539063c-11.316406 8.40625-25.320312 13.390625-40.46875 13.390625-37.496094 0-68-30.503906-68-68zm135.257812-10h-57.257812v-57.257812c29.503906 4.367187 52.890625 27.753906 57.257812 57.257812zm0 0"/><path d="m296.378906 412c-2.628906 0-5.210937 1.070312-7.070312 2.929688-1.859375 1.859374-2.929688 4.441406-2.929688 7.070312s1.070313 5.210938 2.929688 7.070312c1.859375 1.859376 4.441406 2.929688 7.070312 2.929688 2.640625 0 5.210938-1.070312 7.070313-2.929688 1.859375-1.859374 2.929687-4.441406 2.929687-7.070312s-1.070312-5.210938-2.929687-7.070312c-1.859375-1.859376-4.429688-2.929688-7.070313-2.929688zm0 0"/></svg>