<?xml version="1.0" encoding="iso-8859-1"?>
<!-- Generator: Adobe Illustrator 19.0.0, SVG Export Plug-In . SVG Version: 6.00 Build 0)  -->
<svg version="1.1" id="Capa_1" xmlns="http://www.w3.org/2000/svg" xmlns:xlink="http://www.w3.org/1999/xlink" x="0px" y="0px"
	 viewBox="0 0 512 512" style="enable-background:new 0 0 512 512;" xml:space="preserve">
<g>
	<g>
		<path d="M281.541,154.23h-61.54v120h61.54c32.235,0,58.46-26.225,58.46-58.459v-3.082
			C340.001,180.455,313.776,154.23,281.541,154.23z"/>
	</g>
</g>
<g>
	<g>
		<path d="M437.02,74.98C388.667,26.628,324.38,0,256,0S123.333,26.628,74.98,74.98C26.629,123.333,0,187.621,0,256
			s26.629,132.667,74.981,181.019S187.62,512,256,512s132.667-26.628,181.02-74.98C485.371,388.667,512,324.379,512,256
			S485.371,123.333,437.02,74.98z M370.001,215.771c0,48.776-39.683,88.459-88.46,88.459h-61.54v83.541h-30V124.23h91.54
			c48.777,0,88.46,39.683,88.46,88.459V215.771z"/>
	</g>
</g>
<g>
</g>
<g>
</g>
<g>
</g>
<g>
</g>
<g>
</g>
<g>
</g>
<g>
</g>
<g>
</g>
<g>
</g>
<g>
</g>
<g>
</g>
<g>
</g>
<g>
</g>
<g>
</g>
<g>
</g>
</svg>
